<mxfile host="app.diagrams.net" agent="Mozilla/5.0 (Windows NT 10.0; Win64; x64) AppleWebKit/537.36 (KHTML, like Gecko) Chrome/130.0.0.0 Safari/537.36 Edg/130.0.0.0" version="24.8.4">
  <diagram name="Page-1" id="0783ab3e-0a74-02c8-0abd-f7b4e66b4bec">
    <mxGraphModel dx="1301" dy="1807" grid="1" gridSize="10" guides="1" tooltips="1" connect="1" arrows="1" fold="1" page="1" pageScale="1" pageWidth="850" pageHeight="1100" background="none" math="0" shadow="0">
      <root>
        <mxCell id="0" />
        <mxCell id="1" parent="0" />
        <mxCell id="jJkP39wPVFVznyVj5WLV-18" value="" style="shape=process;whiteSpace=wrap;html=1;backgroundOutline=1;movable=0;resizable=0;rotatable=0;deletable=0;editable=0;locked=1;connectable=0;" vertex="1" parent="1">
          <mxGeometry x="140" y="-10" width="710" height="380" as="geometry" />
        </mxCell>
        <mxCell id="jJkP39wPVFVznyVj5WLV-9" value="" style="ellipse;whiteSpace=wrap;html=1;" vertex="1" parent="1">
          <mxGeometry x="10" y="140" width="120" height="80" as="geometry" />
        </mxCell>
        <mxCell id="jJkP39wPVFVznyVj5WLV-1" value="Início" style="text;align=center;fontStyle=1;verticalAlign=middle;spacingLeft=3;spacingRight=3;strokeColor=none;rotatable=0;points=[[0,0.5],[1,0.5]];portConstraint=eastwest;html=1;" vertex="1" parent="1">
          <mxGeometry x="15" y="-50" width="110" height="40" as="geometry" />
        </mxCell>
        <mxCell id="jJkP39wPVFVznyVj5WLV-2" value="" style="ellipse;html=1;shape=startState;fillColor=#000000;strokeColor=#ff0000;" vertex="1" parent="1">
          <mxGeometry x="37.5" y="-10" width="65" height="66" as="geometry" />
        </mxCell>
        <mxCell id="jJkP39wPVFVznyVj5WLV-3" value="" style="edgeStyle=orthogonalEdgeStyle;html=1;verticalAlign=bottom;endArrow=open;endSize=8;strokeColor=#ff0000;rounded=0;" edge="1" source="jJkP39wPVFVznyVj5WLV-2" parent="1">
          <mxGeometry relative="1" as="geometry">
            <mxPoint x="70" y="136" as="targetPoint" />
          </mxGeometry>
        </mxCell>
        <mxCell id="jJkP39wPVFVznyVj5WLV-8" value="Send-Blusy acessa o Evolution Manager" style="text;strokeColor=none;fillColor=none;spacingLeft=4;spacingRight=4;overflow=hidden;rotatable=0;points=[[0,0.5],[1,0.5]];portConstraint=eastwest;fontSize=12;whiteSpace=wrap;html=1;" vertex="1" parent="1">
          <mxGeometry x="10" y="165" width="160" height="30" as="geometry" />
        </mxCell>
        <mxCell id="jJkP39wPVFVznyVj5WLV-10" value="" style="endArrow=classic;html=1;rounded=0;" edge="1" parent="1">
          <mxGeometry width="50" height="50" relative="1" as="geometry">
            <mxPoint x="69.41" y="240" as="sourcePoint" />
            <mxPoint x="69.41" y="310" as="targetPoint" />
            <Array as="points">
              <mxPoint x="69" y="220" />
            </Array>
          </mxGeometry>
        </mxCell>
        <mxCell id="jJkP39wPVFVznyVj5WLV-11" value="" style="ellipse;whiteSpace=wrap;html=1;" vertex="1" parent="1">
          <mxGeometry x="10" y="330" width="120" height="80" as="geometry" />
        </mxCell>
        <mxCell id="jJkP39wPVFVznyVj5WLV-12" value="Verificação da conexão do número" style="text;html=1;align=center;verticalAlign=middle;whiteSpace=wrap;rounded=0;" vertex="1" parent="1">
          <mxGeometry x="40" y="355" width="60" height="30" as="geometry" />
        </mxCell>
        <mxCell id="jJkP39wPVFVznyVj5WLV-13" value="" style="endArrow=classic;html=1;rounded=0;exitX=1;exitY=0.5;exitDx=0;exitDy=0;" edge="1" parent="1" source="jJkP39wPVFVznyVj5WLV-11">
          <mxGeometry x="0.9294" y="-30" width="50" height="50" relative="1" as="geometry">
            <mxPoint x="140" y="370" as="sourcePoint" />
            <mxPoint x="250" y="90" as="targetPoint" />
            <mxPoint as="offset" />
          </mxGeometry>
        </mxCell>
        <mxCell id="jJkP39wPVFVznyVj5WLV-26" style="edgeStyle=orthogonalEdgeStyle;rounded=0;orthogonalLoop=1;jettySize=auto;html=1;exitX=1;exitY=0.5;exitDx=0;exitDy=0;" edge="1" parent="1" source="jJkP39wPVFVznyVj5WLV-14">
          <mxGeometry relative="1" as="geometry">
            <mxPoint x="430" y="49.470588235294144" as="targetPoint" />
          </mxGeometry>
        </mxCell>
        <mxCell id="jJkP39wPVFVznyVj5WLV-14" value="" style="ellipse;whiteSpace=wrap;html=1;" vertex="1" parent="1">
          <mxGeometry x="219" y="10" width="120" height="80" as="geometry" />
        </mxCell>
        <mxCell id="jJkP39wPVFVznyVj5WLV-15" value="Número não conectado" style="text;html=1;align=center;verticalAlign=middle;whiteSpace=wrap;rounded=0;" vertex="1" parent="1">
          <mxGeometry x="249" y="35" width="60" height="30" as="geometry" />
        </mxCell>
        <mxCell id="jJkP39wPVFVznyVj5WLV-21" value="" style="shape=process;whiteSpace=wrap;html=1;backgroundOutline=1;movable=0;resizable=0;rotatable=0;deletable=0;editable=0;locked=1;connectable=0;" vertex="1" parent="1">
          <mxGeometry x="140" y="440" width="710" height="440" as="geometry" />
        </mxCell>
        <mxCell id="jJkP39wPVFVznyVj5WLV-42" style="edgeStyle=orthogonalEdgeStyle;rounded=0;orthogonalLoop=1;jettySize=auto;html=1;exitX=1;exitY=0.5;exitDx=0;exitDy=0;" edge="1" parent="1" source="jJkP39wPVFVznyVj5WLV-23">
          <mxGeometry relative="1" as="geometry">
            <mxPoint x="430" y="489" as="targetPoint" />
          </mxGeometry>
        </mxCell>
        <mxCell id="jJkP39wPVFVznyVj5WLV-23" value="" style="ellipse;whiteSpace=wrap;html=1;" vertex="1" parent="1">
          <mxGeometry x="219" y="450" width="120" height="80" as="geometry" />
        </mxCell>
        <mxCell id="jJkP39wPVFVznyVj5WLV-24" value="Número&amp;nbsp; conectado" style="text;html=1;align=center;verticalAlign=middle;whiteSpace=wrap;rounded=0;" vertex="1" parent="1">
          <mxGeometry x="249" y="475" width="60" height="30" as="geometry" />
        </mxCell>
        <mxCell id="jJkP39wPVFVznyVj5WLV-19" value="" style="endArrow=classic;html=1;rounded=0;exitX=0.5;exitY=1;exitDx=0;exitDy=0;movable=1;resizable=1;rotatable=1;deletable=1;editable=1;locked=0;connectable=1;" edge="1" parent="1" source="jJkP39wPVFVznyVj5WLV-11">
          <mxGeometry width="50" height="50" relative="1" as="geometry">
            <mxPoint x="70" y="450" as="sourcePoint" />
            <mxPoint x="220" y="480" as="targetPoint" />
            <Array as="points">
              <mxPoint x="100" y="430" />
              <mxPoint x="220" y="480" />
            </Array>
          </mxGeometry>
        </mxCell>
        <mxCell id="jJkP39wPVFVznyVj5WLV-29" style="edgeStyle=orthogonalEdgeStyle;rounded=0;orthogonalLoop=1;jettySize=auto;html=1;exitX=1;exitY=0.5;exitDx=0;exitDy=0;" edge="1" parent="1" source="jJkP39wPVFVznyVj5WLV-27">
          <mxGeometry relative="1" as="geometry">
            <mxPoint x="650" y="50" as="targetPoint" />
          </mxGeometry>
        </mxCell>
        <mxCell id="jJkP39wPVFVznyVj5WLV-30" style="edgeStyle=orthogonalEdgeStyle;rounded=0;orthogonalLoop=1;jettySize=auto;html=1;exitX=0.5;exitY=1;exitDx=0;exitDy=0;" edge="1" parent="1" source="jJkP39wPVFVznyVj5WLV-27">
          <mxGeometry relative="1" as="geometry">
            <mxPoint x="495.47058823529414" y="150" as="targetPoint" />
          </mxGeometry>
        </mxCell>
        <mxCell id="jJkP39wPVFVznyVj5WLV-27" value="" style="ellipse;whiteSpace=wrap;html=1;" vertex="1" parent="1">
          <mxGeometry x="435" y="10" width="120" height="80" as="geometry" />
        </mxCell>
        <mxCell id="jJkP39wPVFVznyVj5WLV-28" value="Busca QR code" style="text;html=1;align=center;verticalAlign=middle;whiteSpace=wrap;rounded=0;" vertex="1" parent="1">
          <mxGeometry x="465" y="35" width="60" height="30" as="geometry" />
        </mxCell>
        <mxCell id="jJkP39wPVFVznyVj5WLV-39" style="edgeStyle=orthogonalEdgeStyle;rounded=0;orthogonalLoop=1;jettySize=auto;html=1;exitX=0.5;exitY=1;exitDx=0;exitDy=0;" edge="1" parent="1" source="jJkP39wPVFVznyVj5WLV-31">
          <mxGeometry relative="1" as="geometry">
            <mxPoint x="709.5882352941178" y="150" as="targetPoint" />
          </mxGeometry>
        </mxCell>
        <mxCell id="jJkP39wPVFVznyVj5WLV-31" value="" style="ellipse;whiteSpace=wrap;html=1;" vertex="1" parent="1">
          <mxGeometry x="650" y="10" width="120" height="80" as="geometry" />
        </mxCell>
        <mxCell id="jJkP39wPVFVznyVj5WLV-32" value="QR Code encontrado" style="text;html=1;align=center;verticalAlign=middle;whiteSpace=wrap;rounded=0;" vertex="1" parent="1">
          <mxGeometry x="680" y="36" width="60" height="30" as="geometry" />
        </mxCell>
        <mxCell id="jJkP39wPVFVznyVj5WLV-35" style="edgeStyle=orthogonalEdgeStyle;rounded=0;orthogonalLoop=1;jettySize=auto;html=1;exitX=0.5;exitY=1;exitDx=0;exitDy=0;" edge="1" parent="1" source="jJkP39wPVFVznyVj5WLV-33">
          <mxGeometry relative="1" as="geometry">
            <mxPoint x="495.47058823529414" y="270" as="targetPoint" />
          </mxGeometry>
        </mxCell>
        <mxCell id="jJkP39wPVFVznyVj5WLV-33" value="" style="ellipse;whiteSpace=wrap;html=1;" vertex="1" parent="1">
          <mxGeometry x="435" y="150" width="120" height="80" as="geometry" />
        </mxCell>
        <mxCell id="jJkP39wPVFVznyVj5WLV-34" value="QR code não encontrado" style="text;html=1;align=center;verticalAlign=middle;whiteSpace=wrap;rounded=0;" vertex="1" parent="1">
          <mxGeometry x="465" y="175" width="60" height="30" as="geometry" />
        </mxCell>
        <mxCell id="jJkP39wPVFVznyVj5WLV-40" value="ERRO" style="shape=callout;whiteSpace=wrap;html=1;perimeter=calloutPerimeter;" vertex="1" parent="1">
          <mxGeometry x="435" y="275" width="120" height="80" as="geometry" />
        </mxCell>
        <mxCell id="jJkP39wPVFVznyVj5WLV-41" value="SUCESSO" style="shape=callout;whiteSpace=wrap;html=1;perimeter=calloutPerimeter;" vertex="1" parent="1">
          <mxGeometry x="650" y="150" width="120" height="80" as="geometry" />
        </mxCell>
        <mxCell id="jJkP39wPVFVznyVj5WLV-45" style="edgeStyle=orthogonalEdgeStyle;rounded=0;orthogonalLoop=1;jettySize=auto;html=1;exitX=1;exitY=0.5;exitDx=0;exitDy=0;" edge="1" parent="1" source="jJkP39wPVFVznyVj5WLV-44">
          <mxGeometry relative="1" as="geometry">
            <mxPoint x="620" y="489.47058823529414" as="targetPoint" />
          </mxGeometry>
        </mxCell>
        <mxCell id="jJkP39wPVFVznyVj5WLV-44" value="Verifica se há mensagem para enviar" style="ellipse;whiteSpace=wrap;html=1;" vertex="1" parent="1">
          <mxGeometry x="435" y="450" width="120" height="80" as="geometry" />
        </mxCell>
        <mxCell id="jJkP39wPVFVznyVj5WLV-47" style="edgeStyle=orthogonalEdgeStyle;rounded=0;orthogonalLoop=1;jettySize=auto;html=1;exitX=1;exitY=1;exitDx=0;exitDy=0;" edge="1" parent="1" source="jJkP39wPVFVznyVj5WLV-46">
          <mxGeometry relative="1" as="geometry">
            <mxPoint x="740" y="590" as="targetPoint" />
          </mxGeometry>
        </mxCell>
        <mxCell id="jJkP39wPVFVznyVj5WLV-48" style="edgeStyle=orthogonalEdgeStyle;rounded=0;orthogonalLoop=1;jettySize=auto;html=1;exitX=0.5;exitY=1;exitDx=0;exitDy=0;" edge="1" parent="1" source="jJkP39wPVFVznyVj5WLV-46">
          <mxGeometry relative="1" as="geometry">
            <mxPoint x="670" y="690" as="targetPoint" />
            <Array as="points">
              <mxPoint x="670" y="530" />
            </Array>
          </mxGeometry>
        </mxCell>
        <mxCell id="jJkP39wPVFVznyVj5WLV-54" style="edgeStyle=orthogonalEdgeStyle;rounded=0;orthogonalLoop=1;jettySize=auto;html=1;exitX=0;exitY=1;exitDx=0;exitDy=0;entryX=1;entryY=0;entryDx=0;entryDy=0;" edge="1" parent="1" source="jJkP39wPVFVznyVj5WLV-46" target="jJkP39wPVFVznyVj5WLV-50">
          <mxGeometry relative="1" as="geometry" />
        </mxCell>
        <mxCell id="jJkP39wPVFVznyVj5WLV-46" value="Ação do N8N com Chatwoot via Webhook" style="ellipse;whiteSpace=wrap;html=1;" vertex="1" parent="1">
          <mxGeometry x="630" y="450" width="120" height="80" as="geometry" />
        </mxCell>
        <mxCell id="jJkP39wPVFVznyVj5WLV-50" value="Cria contato" style="ellipse;whiteSpace=wrap;html=1;" vertex="1" parent="1">
          <mxGeometry x="540" y="590" width="120" height="80" as="geometry" />
        </mxCell>
        <mxCell id="jJkP39wPVFVznyVj5WLV-51" value="Envio de Mensagem" style="ellipse;whiteSpace=wrap;html=1;" vertex="1" parent="1">
          <mxGeometry x="610" y="690" width="120" height="80" as="geometry" />
        </mxCell>
        <mxCell id="jJkP39wPVFVznyVj5WLV-52" value="Seleção da Caixa de Entrada" style="ellipse;whiteSpace=wrap;html=1;" vertex="1" parent="1">
          <mxGeometry x="670" y="590" width="120" height="80" as="geometry" />
        </mxCell>
        <mxCell id="jJkP39wPVFVznyVj5WLV-55" value="" style="endArrow=classic;html=1;rounded=0;exitX=0.065;exitY=0.743;exitDx=0;exitDy=0;exitPerimeter=0;" edge="1" parent="1" source="jJkP39wPVFVznyVj5WLV-46">
          <mxGeometry width="50" height="50" relative="1" as="geometry">
            <mxPoint x="410" y="610" as="sourcePoint" />
            <mxPoint x="390" y="590" as="targetPoint" />
          </mxGeometry>
        </mxCell>
        <mxCell id="jJkP39wPVFVznyVj5WLV-58" style="edgeStyle=orthogonalEdgeStyle;rounded=0;orthogonalLoop=1;jettySize=auto;html=1;exitX=0.5;exitY=1;exitDx=0;exitDy=0;" edge="1" parent="1" source="jJkP39wPVFVznyVj5WLV-56">
          <mxGeometry relative="1" as="geometry">
            <mxPoint x="330" y="750" as="targetPoint" />
          </mxGeometry>
        </mxCell>
        <mxCell id="jJkP39wPVFVznyVj5WLV-56" value="N8N Cria logs de execução" style="ellipse;whiteSpace=wrap;html=1;" vertex="1" parent="1">
          <mxGeometry x="270" y="570" width="120" height="80" as="geometry" />
        </mxCell>
        <mxCell id="jJkP39wPVFVznyVj5WLV-57" value="" style="ellipse;html=1;shape=endState;fillColor=#000000;strokeColor=#ff0000;" vertex="1" parent="1">
          <mxGeometry x="297.5" y="750" width="65" height="60" as="geometry" />
        </mxCell>
        <mxCell id="jJkP39wPVFVznyVj5WLV-61" value="Fim" style="text;align=center;fontStyle=1;verticalAlign=middle;spacingLeft=3;spacingRight=3;strokeColor=none;rotatable=0;points=[[0,0.5],[1,0.5]];portConstraint=eastwest;html=1;" vertex="1" parent="1">
          <mxGeometry x="290" y="810" width="80" height="26" as="geometry" />
        </mxCell>
      </root>
    </mxGraphModel>
  </diagram>
</mxfile>
